<svg xmlns="http://www.w3.org/2000/svg" xmlns:xlink="http://www.w3.org/1999/xlink" id="Layer_1" x="0" y="0" enable-background="new 0 0 247.4 123.7" version="1.1" viewBox="0 0 247.4 123.7" xml:space="preserve"><g><path d="M30.9,0h61.9v108.2H0V15.5h30.9V0z M46.4,15.5v15.5H15.5v61.9h61.9V15.5H46.4z M30.9,46.4h15.5v30.9H30.9V46.4z"/><path d="M170.1,15.5v92.8H77.3V15.5H170.1z M92.8,30.9v61.9h61.9V30.9H92.8z M123.7,46.4h15.5v30.9h-15.5V46.4z"/><path d="M247.4,15.5v92.8h-92.8V15.5H247.4z M170.1,30.9v61.9H232V77.3H201V46.4h15.5v15.5H232V30.9H170.1z"/></g></svg>